Coordinates
version=1
nRows=9
nColumns=24
inDegrees=yes

Units are S.I. units (second, meters, Newtons, ...)
Angles are in degrees.

endheader
time	pelvis_tilt	pelvis_list	pelvis_rotation	pelvis_tx	pelvis_ty	pelvis_tz	hip_flexion_r	hip_adduction_r	hip_rotation_r	knee_angle_r	ankle_angle_r	subtalar_angle_r	mtp_angle_r	hip_flexion_l	hip_adduction_l	hip_rotation_l	knee_angle_l	ankle_angle_l	subtalar_angle_l	mtp_angle_l	lumbar_extension	lumbar_bending	lumbar_rotation
      5.24000000	     14.51325285	      3.35721499	    -16.18691729	      0.49733164	      0.81389379	     -0.10655207	     -9.00289054	     -7.85745451	      5.46212608	    -61.39410452	     -8.67143065	     -6.36957242	      0.00000000	     -0.72119873	     10.99411668	     -4.19558992	    -16.32427449	     11.08971175	    -13.86501793	      0.00000000	    -30.14640915	     -8.96098469	      8.12727241
      5.25000000	     14.31622569	      2.64096280	    -15.70948474	      0.50893838	      0.81664914	     -0.10697893	     -7.10404947	     -6.59880453	      5.04181032	    -62.04185780	     -4.99362637	     -6.52544764	      0.00000000	     -2.24592811	     10.43326482	     -3.77750377	    -15.24528467	     11.51851869	    -13.36474665	      0.00000000	    -30.27231394	     -7.85063410	      7.23650193
      5.26000000	     14.03819248	      1.75998211	    -15.21940128	      0.52049043	      0.81936676	     -0.10747574	     -5.21007652	     -5.16946325	      4.59675365	    -62.26185768	     -1.40604141	     -6.45615626	      0.00000000	     -3.75566012	      9.67537391	     -3.23705031	    -14.08161916	     11.82073821	    -13.05261794	      0.00000000	    -30.32063879	     -6.49793310	      6.45578507
      5.27000000	     13.69634918	      0.85870337	    -14.70382064	      0.53201955	      0.82186873	     -0.10798934	     -3.30145010	     -3.72295355	      4.09731351	    -62.12608528	      1.99289451	     -6.26615620	      0.00000000	     -5.21167069	      8.86318885	     -2.63485673	    -12.85375055	     11.99434863	    -12.89736119	      0.00000000	    -30.27932023	     -5.08964838	      5.68725744
      5.28000000	     13.28845682	      0.00212008	    -14.18478898	      0.54352151	      0.82403174	     -0.10848337	     -1.34973177	     -2.32222691	      3.58536101	    -61.68626163	      5.06236343	     -6.13250891	      0.00000000	     -6.59330042	      8.06800236	     -1.96104685	    -11.55781930	     12.01522604	    -12.96651707	      0.00000000	    -30.13461144	     -3.71121787	      4.91374717
      5.29000000	     12.82545534	     -0.77874428	    -13.69477655	      0.55496139	      0.82576794	     -0.10893640	      0.65123281	     -0.99998822	      3.10833147	    -60.98207094	      7.71363489	     -6.22657475	      0.00000000	     -7.90237585	      7.33454793	     -1.21015974	    -10.19306879	     11.88374241	    -13.36125076	      0.00000000	    -29.91038505	     -2.40488699	      4.13464626
      5.30000000	     12.35521234	     -1.47061092	    -13.27627639	      0.56639656	      0.82709848	     -0.10911992	      2.62634556	      0.24691602	      2.75358651	    -60.00611800	      9.95577193	     -6.61753854	      0.00000000	     -9.19487237	      6.66269382	     -0.50594694	     -8.78343297	     11.76894768	    -13.69162965	      0.00000000	    -29.61882573	     -1.27361086	      3.47430378
      5.31000000	     11.92016973	     -2.11968892	    -13.05176137	      0.57767426	      0.82803806	     -0.10897152	      4.53590210	      1.47255663	      2.68856270	    -58.78718599	     11.84783808	     -7.21826277	      0.00000000	    -10.44527074	      6.04385903	     -0.36788328	     -7.44621337	     11.82677308	    -13.75907389	      0.00000000	    -29.39313822	     -0.30709214	      2.97191804
      5.32000000	     11.46990296	     -2.59300380	    -12.57106120	      0.58897653	      0.82854639	     -0.10907160	      6.39316838	      2.47188340	      2.39744152	    -57.25624104	     13.32959463	     -8.14368482	      0.00000000	    -11.65554526	      5.55620945	      0.50392852	     -6.07235541	     11.58198171	    -14.40994353	      0.00000000	    -29.11628717	      0.57729084	      2.09447970
